<svg viewBox="0 0 2758.64 344.93" xmlns="http://www.w3.org/2000/svg"><path d="m148.9 168.7 101.56-58.64a50 50 0 0 0 -50-86.56l-175.46 101.33z" fill="#ea4335"/><path d="m225.43 319.41a50 50 0 0 0 25-93.26l-175.43-101.32a50 50 0 0 0 -50 86.56l175.49 101.31a49.73 49.73 0 0 0 24.94 6.71z" fill="#4285f4"/><path d="m400 319.41a49.73 49.73 0 0 0 24.94-6.7l175.5-101.33-122.33-44.78-103.11 59.55a50 50 0 0 0 25 93.26z" fill="#fbbc04"/><path d="m575.4 218.09a50 50 0 0 0 25-93.26l-175.46-101.33a50 50 0 0 0 -50 86.56l175.52 101.32a49.77 49.77 0 0 0 24.94 6.71z" fill="#0f9d58"/><g fill="#676c72"><path d="m823.89 268.51a112.21 112.21 0 0 1 -41.6-41.6q-15.41-26.5-15.41-58.55t15.41-58.55a113.2 113.2 0 0 1 98.92-56.7 121.39 121.39 0 0 1 45.79 8.61q21.42 8.63 35.29 24.35l-18.8 18.8a68 68 0 0 0 -26.84-19.87 91.16 91.16 0 0 0 -78.74 4.31 85.66 85.66 0 0 0 -32.36 31.69q-12.18 20.5-12.17 47.3t12.17 47.3a85.29 85.29 0 0 0 32.51 31.74 88.37 88.37 0 0 0 43.45 11.25q22.19 0 37.13-6.93a83.25 83.25 0 0 0 25.73-18.34 67.36 67.36 0 0 0 12.94-20.8 91.9 91.9 0 0 0 6.16-27h-81.65v-24.26h106a91.72 91.72 0 0 1 1.54 16 123.51 123.51 0 0 1 -6.47 39.6 87.47 87.47 0 0 1 -20.65 33.75q-30.51 33-81 33a112.73 112.73 0 0 1 -57.35-15.1z"/><path d="m1022 58h66.57q33.9 0 59.17 14a96.57 96.57 0 0 1 38.83 39q13.56 25 13.56 57.32t-13.56 57.32a96.54 96.54 0 0 1 -38.83 39q-25.27 14-59.17 14h-66.57zm66.57 195.69q39.13 0 62.1-22.5t23-62.87q0-40.37-23-62.87t-62.07-22.45h-40.68v170.71z"/><path d="m1278.74 268.51a112.21 112.21 0 0 1 -41.6-41.6q-15.41-26.5-15.41-58.55t15.41-58.55a113.2 113.2 0 0 1 98.92-56.7 121.4 121.4 0 0 1 45.76 8.63q21.41 8.63 35.29 24.35l-18.8 18.8a68 68 0 0 0 -26.8-19.89 91.16 91.16 0 0 0 -78.74 4.31 85.65 85.65 0 0 0 -32.36 31.69q-12.18 20.5-12.17 47.3t12.17 47.3a85.29 85.29 0 0 0 32.51 31.74 88.37 88.37 0 0 0 43.45 11.25q22.19 0 37.13-6.93a83.23 83.23 0 0 0 25.73-18.34 67.32 67.32 0 0 0 12.94-20.8 91.89 91.89 0 0 0 6.16-27h-81.67v-24.26h106a91.73 91.73 0 0 1 1.54 16 123.51 123.51 0 0 1 -6.47 39.6 87.46 87.46 0 0 1 -20.65 33.75q-30.51 33-81 33a112.73 112.73 0 0 1 -57.34-15.1z"/><path d="m1584.81 57.35h29.7l55.93 164 7.58 22.44h1.26l7.9-22.44 58.46-164h29.7l-82.79 226.26h-27.81z"/><path d="m1803.48 281.71a52 52 0 0 1 -21.48-19.12 51.17 51.17 0 0 1 -7.58-27.65q0-25.6 19.28-40t48.66-14.38a110.12 110.12 0 0 1 27 3.16q12.48 3.16 19.12 7.27v-9.8q0-18-12.64-28.91t-31.92-10.9a53.81 53.81 0 0 0 -25 5.85 45.63 45.63 0 0 0 -18 16.27l-20.22-15.17a64.64 64.64 0 0 1 26.07-22.75 81.83 81.83 0 0 1 36.81-8.22q32.86 0 51.67 17.22t18.8 46.93v102.1h-25.6v-23.07h-1.26q-7 11.7-20.86 19.91a60.36 60.36 0 0 1 -31.28 8.22q-17.67-.01-31.57-6.96zm59.41-23.7a52.69 52.69 0 0 0 18.64-18.64 49.19 49.19 0 0 0 7-25.6 66.51 66.51 0 0 0 -18.64-8.22 84.86 84.86 0 0 0 -23.38-3.16q-22.12 0-33.34 9.16a29.2 29.2 0 0 0 -11.22 23.7 26.35 26.35 0 0 0 10.05 21.49q10.11 8.22 25.6 8.22a48.6 48.6 0 0 0 25.29-6.96z"/><path d="m1951.36 57.35h26.86v226.26h-26.86z"/><path d="m2046.8 277.6a76.69 76.69 0 0 1 -28.6-30.49q-10.27-19.43-10.27-43.77a96 96 0 0 1 9.64-43 78 78 0 0 1 27.33-31.28q17.69-11.69 41.08-11.69 23.7 0 41.08 10.59a70.31 70.31 0 0 1 26.7 29.23q9.32 18.65 9.32 42.66a31.45 31.45 0 0 1 -.95 8.22h-127.34q.95 18.33 8.85 31a51.52 51.52 0 0 0 20.07 19 54.42 54.42 0 0 0 25.44 6.32q31 0 47.72-29.07l22.75 11.06a81.14 81.14 0 0 1 -28.28 31q-17.86 11.38-43.13 11.38-23.09-.1-41.41-11.16zm87.85-91.6a52.46 52.46 0 0 0 -5.69-20.22q-5.06-10.11-16-17.06t-27.33-7q-19 0-32.07 12.17t-17.19 32.11z"/><path d="m2194.37 122.44h25.63v23.7h1.26q6.64-12 21.17-20.38a61.06 61.06 0 0 1 31-8.37q29.07 0 44.4 16.91t15.33 46v103.31h-26.86v-99.23q0-22.43-10.74-32.55t-29.39-10.11a39.23 39.23 0 0 0 -23.23 7.27 48.85 48.85 0 0 0 -16 19.12 56.65 56.65 0 0 0 -5.69 24.81v90.69h-26.86z"/><path d="m2402.61 277.44a78.24 78.24 0 0 1 -29.07-30.65q-10.43-19.43-10.43-43.77t10.43-43.92a76.91 76.91 0 0 1 29.07-30.65q18.64-11.06 42-11.06 26.23 0 44.08 12.17a66.64 66.64 0 0 1 25.44 32.39l-24.33 10.11q-6-14.85-17.85-22.59t-28.6-7.74a49 49 0 0 0 -26.54 7.74 56.19 56.19 0 0 0 -19.75 21.65q-7.43 13.91-7.43 31.92t7.43 31.92a56.13 56.13 0 0 0 19.75 21.65 49 49 0 0 0 26.54 7.74q17.06 0 29.39-7.9a47.26 47.26 0 0 0 18.35-22.45l24 10.11a71 71 0 0 1 -26.39 32.23q-18.18 12.32-44.08 12.32-23.37 0-42.01-11.22z"/><path d="m2546.38 87.37a18.54 18.54 0 0 1 -5.69-13.59 18 18 0 0 1 5.69-13.43 19.46 19.46 0 0 1 27.18 0 18 18 0 0 1 5.69 13.43 18.82 18.82 0 0 1 -5.53 13.59 19.26 19.26 0 0 1 -27.33 0zm.32 35.08h26.54v161.16h-26.54z"/><path d="m2633.92 281.71a52 52 0 0 1 -21.49-19.12 51.17 51.17 0 0 1 -7.58-27.65q0-25.6 19.28-40t48.66-14.38a110.12 110.12 0 0 1 27 3.16q12.48 3.16 19.12 7.27v-9.8q0-18-12.64-28.91t-31.92-10.9a53.81 53.81 0 0 0 -25 5.85 45.63 45.63 0 0 0 -18 16.27l-20.22-15.17a64.64 64.64 0 0 1 26.07-22.75 81.83 81.83 0 0 1 36.81-8.22q32.86 0 51.67 17.22t18.8 46.93v102.1h-25.6v-23.07h-1.26q-7 11.7-20.86 19.91a60.36 60.36 0 0 1 -31.28 8.22q-17.66-.01-31.56-6.96zm59.41-23.7a52.69 52.69 0 0 0 18.67-18.65 49.19 49.19 0 0 0 7-25.6 66.51 66.51 0 0 0 -18.64-8.22 84.86 84.86 0 0 0 -23.38-3.16q-22.12 0-33.34 9.16a29.2 29.2 0 0 0 -11.22 23.7 26.35 26.35 0 0 0 10.11 21.49q10.03 8.27 25.47 8.27a48.6 48.6 0 0 0 25.33-7z"/></g></svg>