<?xml version="1.0" encoding="UTF-8" standalone="no"?>
<!DOCTYPE svg PUBLIC "-//W3C//DTD SVG 1.1//EN" "http://www.w3.org/Graphics/SVG/1.1/DTD/svg11.dtd">
<svg width="100%" height="100%" viewBox="0 0 797 252" version="1.1" xmlns="http://www.w3.org/2000/svg" xmlns:xlink="http://www.w3.org/1999/xlink" xml:space="preserve" xmlns:serif="http://www.serif.com/" style="fill-rule:evenodd;clip-rule:evenodd;stroke-miterlimit:10;">
    <path d="M427,14.11L427,115.73L387.6,115.73L387.6,14.11L427,14.11ZM428.5,12.61L386.1,12.61L386.1,117.23L428.5,117.23L428.5,12.61Z" style="fill:white;fill-rule:nonzero;"/>
    <path d="M760.85,14.11L760.85,115.73L721.45,115.73L721.45,14.11L760.85,14.11ZM762.35,12.61L719.95,12.61L719.95,117.23L762.35,117.23L762.35,12.61Z" style="fill:white;fill-rule:nonzero;"/>
    <path d="M50.68,14.11L50.68,115.73L11.28,115.73L11.28,14.11L50.68,14.11ZM52.18,12.61L9.78,12.61L9.78,117.23L52.18,117.23L52.18,12.61Z" style="fill:white;fill-rule:nonzero;"/>
    <path d="M167.57,117.23L167.57,12.61C147.055,12.61 130.171,29.485 130.16,50L130.16,79.8C130.16,79.807 130.16,79.813 130.16,79.82C130.16,100.343 147.047,117.23 167.57,117.23L167.57,117.23Z" style="fill:white;fill-rule:nonzero;"/>
    <path d="M213.48,14.11L213.48,115.73L169.07,115.73L169.07,14.11L213.48,14.11ZM215,12.61L167.57,12.61L167.57,117.23L215,117.23L215,12.61Z" style="fill:white;fill-rule:nonzero;"/>
    <path d="M299.55,14.11L299.55,111.63L243.25,14.11L299.55,14.11ZM301.05,12.61L240.65,12.61L301,117.23L301,12.61L301.05,12.61Z" style="fill:white;fill-rule:nonzero;"/>
    <path d="M361.45,12.61L301.05,12.61L301.05,117.23L361.45,12.61Z" style="fill:white;fill-rule:nonzero;"/>
    <path d="M52.18,12.61C80.876,12.61 104.49,36.224 104.49,64.92C104.49,93.616 80.876,117.23 52.18,117.23L52.18,12.61Z" style="fill:white;fill-rule:nonzero;"/>
    <path d="M52.18,97.26C52.37,97.263 52.559,97.265 52.749,97.265C70.49,97.265 85.089,82.666 85.089,64.925C85.089,47.184 70.49,32.585 52.749,32.585C52.559,32.585 52.37,32.587 52.18,32.59L31,32.59L31,57.33" style="fill:none;fill-rule:nonzero;stroke:rgb(32,33,36);stroke-width:1.5px;"/>
    <path d="M640.77,91.08C619.249,91.08 601.54,73.371 601.54,51.85C601.54,30.329 619.249,12.62 640.77,12.62L640.77,91.08Z" style="fill:white;fill-rule:nonzero;"/>
    <rect x="428.52" y="12.61" width="34.88" height="26.15" style="fill:white;fill-rule:nonzero;"/>
    <rect x="693.29" y="12.61" width="26.66" height="26.15" style="fill:white;fill-rule:nonzero;"/>
    <rect x="762.35" y="12.61" width="26.66" height="26.15" style="fill:white;fill-rule:nonzero;"/>
    <rect x="428.52" y="64.92" width="26.16" height="26.15" style="fill:white;fill-rule:nonzero;"/>
    <rect x="640.77" y="12.61" width="34.87" height="26.15" style="fill:white;fill-rule:nonzero;"/>
    <path d="M642.27,40.3C662.51,40.938 678.812,57.762 678.812,78.011C678.812,98.709 661.78,115.741 641.082,115.741C640.978,115.741 640.874,115.741 640.77,115.74L607.4,115.74L607.4,92.58L642.27,92.58L642.27,40.3ZM640.77,38.77L640.77,91.08L605.9,91.08L605.9,117.23L640.77,117.23C662.291,117.23 680,99.521 680,78C680,56.479 662.291,38.77 640.77,38.77Z" style="fill:white;fill-rule:nonzero;"/>
    <path d="M622.48,70.54C617.449,65.622 614.609,58.876 614.609,51.84C614.609,37.495 626.414,25.69 640.759,25.69C640.763,25.69 640.766,25.69 640.77,25.69L660.39,25.69" style="fill:none;fill-rule:nonzero;stroke:rgb(32,33,36);stroke-width:1.5px;"/>
    <path d="M706.62,25.94L775.68,25.94" style="fill:none;fill-rule:nonzero;stroke:white;stroke-width:1.5px;"/>
    <path d="M525.75,117.23L525.75,12.61C505.235,12.61 488.351,29.485 488.34,50L488.34,79.8C488.34,79.807 488.34,79.813 488.34,79.82C488.34,100.343 505.227,117.23 525.75,117.23L525.75,117.23Z" style="fill:white;fill-rule:nonzero;"/>
    <path d="M571.66,14.11L571.66,115.73L527.25,115.73L527.25,14.11L571.66,14.11ZM573.16,12.61L525.75,12.61L525.75,117.23L573.16,117.23L573.16,12.61Z" style="fill:white;fill-rule:nonzero;"/>
    <g>
        <path d="M573.16,49.19L526.72,49.19" style="fill:none;fill-rule:nonzero;stroke:white;stroke-width:1.5px;"/>
        <path d="M573.16,80.66L559.3,80.66" style="fill:none;fill-rule:nonzero;stroke:white;stroke-width:1.5px;"/>
        <path d="M546.65,80.66L536.11,80.66" style="fill:none;fill-rule:nonzero;stroke:white;stroke-width:1.5px;"/>
        <circle cx="277.79" cy="34.05" r="6.65" style="fill:none;stroke:white;stroke-width:1.5px;"/>
        <path d="M281.11,39.81L297.76,68.65" style="fill:none;fill-rule:nonzero;stroke:white;stroke-width:1.5px;"/>
        <g transform="matrix(0.707107,0.707107,-0.707107,0.707107,218.99,-367.39)">
            <rect x="548.5" y="76.18" width="8.94" height="8.94" style="fill:none;fill-rule:nonzero;stroke:white;stroke-width:1.5px;"/>
        </g>
        <circle cx="741.15" cy="48.07" r="6.32" style="fill:none;stroke:white;stroke-width:1.5px;"/>
        <circle cx="741.15" cy="72.31" r="6.32" style="fill:none;stroke:white;stroke-width:1.5px;"/>
        <circle cx="741.15" cy="96.55" r="6.32" style="fill:none;stroke:white;stroke-width:1.5px;"/>
        <path d="M628.4,104.15L640.77,104.15C655.118,104.15 666.925,92.343 666.925,77.995C666.925,63.647 655.118,51.84 640.77,51.84" style="fill:none;fill-rule:nonzero;stroke:white;stroke-width:1.5px;"/>
        <path d="M434.27,77.91L407.32,77.91L407.32,104.85" style="fill:none;fill-rule:nonzero;stroke:white;stroke-width:1.5px;"/>
        <path d="M445.91,25.68L407.32,25.68L407.32,64.26" style="fill:none;fill-rule:nonzero;stroke:white;stroke-width:1.5px;"/>
        <path d="M214.98,49.19L167.38,49.19" style="fill:none;fill-rule:nonzero;stroke:white;stroke-width:1.5px;"/>
        <path d="M214.98,64.92L167.38,64.92" style="fill:none;fill-rule:nonzero;stroke:white;stroke-width:1.5px;"/>
        <path d="M214.98,80.66L167.38,80.66" style="fill:none;fill-rule:nonzero;stroke:white;stroke-width:1.5px;"/>
        <path d="M50.57,32.59L30.98,32.59L30.98,57.33" style="fill:none;fill-rule:nonzero;stroke:white;stroke-width:1.5px;"/>
        <g transform="matrix(0.707107,0.707107,-0.707107,0.707107,54.98,-2.89)">
            <rect x="25.61" y="59.56" width="10.73" height="10.73" style="fill:none;fill-rule:nonzero;stroke:white;stroke-width:1.5px;"/>
        </g>
        <circle cx="301.05" cy="74.34" r="6.65" style="fill:none;stroke:white;stroke-width:1.5px;"/>
        <g>
            <clipPath id="_clip1">
                <rect x="299.41" y="24.98" width="34.26" height="59.11"/>
            </clipPath>
            <g clip-path="url(#_clip1)">
                <circle cx="301.05" cy="74.34" r="6.65" style="fill:none;stroke:rgb(32,33,36);stroke-width:1.5px;"/>
                <circle cx="324.31" cy="34.05" r="6.65" style="fill:none;stroke:rgb(32,33,36);stroke-width:1.5px;"/>
                <path d="M320.98,39.81L304.34,68.65" style="fill:none;fill-rule:nonzero;stroke:rgb(32,33,36);stroke-width:1.5px;"/>
            </g>
        </g>
        <path d="M427.03,25.69L445.91,25.69" style="fill:none;fill-rule:nonzero;stroke:rgb(32,33,36);stroke-width:1.5px;"/>
        <path d="M427.03,77.91L441.6,77.91" style="fill:none;fill-rule:nonzero;stroke:rgb(32,33,36);stroke-width:1.5px;"/>
        <g>
            <clipPath id="_clip2">
                <rect x="503.19" y="40.18" width="24.04" height="18"/>
            </clipPath>
            <g clip-path="url(#_clip2)">
                <path d="M514.09,49.12L507.33,49.08" style="fill:none;fill-rule:nonzero;stroke:rgb(32,33,36);stroke-width:1.5px;"/>
                <g transform="matrix(0.707107,0.707107,-0.707107,0.707107,187.24,-353.67)">
                    <rect x="516.06" y="44.71" width="8.94" height="8.94" style="fill:none;fill-rule:nonzero;stroke:rgb(32,33,36);stroke-width:1.5px;"/>
                </g>
            </g>
        </g>
        <path d="M721.42,25.94L706.62,25.94" style="fill:none;fill-rule:nonzero;stroke:rgb(32,33,36);stroke-width:1.5px;"/>
        <path d="M775.68,25.94L760.87,25.94" style="fill:none;fill-rule:nonzero;stroke:rgb(32,33,36);stroke-width:1.5px;"/>
    </g>
    <path d="M358.41,165C371.926,165.016 383.044,176.134 383.06,189.65L383.06,215.81C383.06,229.335 371.93,240.465 358.405,240.465C344.88,240.465 333.75,229.335 333.75,215.81L333.75,189.61C333.788,176.105 344.905,165.011 358.41,165M358.41,163.5C344.065,163.5 332.26,175.305 332.26,189.65L332.26,215.81C332.26,230.158 344.067,241.965 358.415,241.965C372.763,241.965 384.57,230.158 384.57,215.81L384.57,189.61C384.57,175.265 372.765,163.46 358.42,163.46L358.41,163.5Z" style="fill:white;fill-rule:nonzero;"/>
    <g>
        <path d="M278.87,241.92L239.96,241.92L239.96,228.84" style="fill:none;fill-rule:nonzero;stroke:white;stroke-width:1.5px;"/>
        <path d="M240,228.84C240,218.795 248.265,210.53 258.31,210.53C271.038,210.268 281.365,199.726 281.365,186.995C281.365,174.264 271.038,163.722 258.31,163.46L240,163.46" style="fill:none;fill-rule:nonzero;stroke:white;stroke-width:1.5px;"/>
    </g>
    <g transform="matrix(1,0,0,1,188,0)">
        <path d="M278.87,241.92L239.96,241.92L239.96,228.84" style="fill:none;fill-rule:nonzero;stroke:white;stroke-width:1.5px;"/>
        <path d="M240,228.84C240,218.795 248.265,210.53 258.31,210.53C271.038,210.268 281.365,199.726 281.365,186.995C281.365,174.264 271.038,163.722 258.31,163.46L240,163.46" style="fill:none;fill-rule:nonzero;stroke:white;stroke-width:1.5px;"/>
    </g>
    <g transform="matrix(1,0,0,1,278,0)">
        <path d="M278.87,241.92L239.96,241.92L239.96,228.84" style="fill:none;fill-rule:nonzero;stroke:white;stroke-width:1.5px;"/>
        <path d="M240,228.84C240,218.795 248.265,210.53 258.31,210.53C271.038,210.268 281.365,199.726 281.365,186.995C281.365,174.264 271.038,163.722 258.31,163.46L240,163.46" style="fill:none;fill-rule:nonzero;stroke:white;stroke-width:1.5px;"/>
    </g>
</svg>
