<svg viewBox="0 0 796.52 251.59" xmlns="http://www.w3.org/2000/svg" xmlns:xlink="http://www.w3.org/1999/xlink"><clipPath id="a"><path d="m299.41 24.98h34.26v59.11h-34.26z"/></clipPath><clipPath id="b"><path d="m503.19 40.18h24.04v18h-24.04z"/></clipPath><path d="m427 14.11v101.62h-39.4v-101.62zm1.5-1.5h-42.4v104.62h42.4z" fill="#fff"/><path d="m760.85 14.11v101.62h-39.4v-101.62zm1.5-1.5h-42.4v104.62h42.4z" fill="#fff"/><path d="m50.68 14.11v101.62h-39.4v-101.62zm1.5-1.5h-42.4v104.62h42.4z" fill="#fff"/><path d="m167.57 117.23v-104.62a37.41 37.41 0 0 0 -37.41 37.39v29.8a37.41 37.41 0 0 0 37.41 37.43z" fill="#fff"/><path d="m213.48 14.11v101.62h-44.41v-101.62zm1.5-1.5h-47.41v104.62h47.43v-104.62z" fill="#fff"/><path d="m299.55 14.11v97.52l-56.3-97.52zm1.5-1.5h-60.4l60.35 104.62v-104.62z" fill="#fff"/><path d="m361.45 12.61h-60.4v104.62z" fill="#fff"/><path d="m52.18 12.61a52.31 52.31 0 1 1 0 104.62z" fill="#fff"/><path d="m52.18 97.26a32.34 32.34 0 1 0 0-64.67h-21.18v24.74" fill="none" stroke="#202124" stroke-miterlimit="10" stroke-width="1.500001"/><path d="m640.77 91.08a39.23 39.23 0 1 1 0-78.46z" fill="#fff"/><path d="m428.52 12.61h34.88v26.15h-34.88z" fill="#fff"/><path d="m693.29 12.61h26.66v26.15h-26.66z" fill="#fff"/><path d="m762.35 12.61h26.66v26.15h-26.66z" fill="#fff"/><path d="m428.52 64.92h26.16v26.15h-26.16z" fill="#fff"/><path d="m640.77 12.61h34.87v26.15h-34.87z" fill="#fff"/><path d="m642.27 40.3a37.73 37.73 0 0 1 -1.5 75.44h-33.37v-23.16h34.87zm-1.5-1.53v52.31h-34.87v26.15h34.87a39.23 39.23 0 1 0 0-78.46z" fill="#fff"/><path d="m622.48 70.54a26.15 26.15 0 0 1 18.29-44.85h19.62" fill="none" stroke="#202124" stroke-miterlimit="10" stroke-width="1.500001"/><path d="m706.62 25.94h69.06" fill="none" stroke="#fff" stroke-miterlimit="10" stroke-width="1.500001"/><path d="m525.75 117.23v-104.62a37.41 37.41 0 0 0 -37.41 37.39v29.8a37.41 37.41 0 0 0 37.41 37.43z" fill="#fff"/><path d="m571.66 14.11v101.62h-44.41v-101.62zm1.5-1.5h-47.41v104.62h47.41z" fill="#fff"/><g fill="none" stroke-miterlimit="10"><path d="m573.16 49.19h-46.44" stroke="#fff" stroke-width="1.500001"/><path d="m573.16 80.66h-13.86" stroke="#fff" stroke-width="1.500001"/><path d="m546.65 80.66h-10.54" stroke="#fff" stroke-width="1.500001"/><circle cx="277.79" cy="34.05" r="6.65" stroke="#fff" stroke-width="1.500001"/><path d="m281.11 39.81 16.65 28.84" stroke="#fff" stroke-width="1.500001"/><path d="m548.5 76.18h8.94v8.94h-8.94z" stroke="#fff" stroke-width="1.500001" transform="matrix(.70710678 .70710678 -.70710678 .70710678 218.99 -367.39)"/><circle cx="741.15" cy="48.07" r="6.32" stroke="#fff" stroke-width="1.500001"/><circle cx="741.15" cy="72.31" r="6.32" stroke="#fff" stroke-width="1.500001"/><circle cx="741.15" cy="96.55" r="6.32" stroke="#fff" stroke-width="1.500001"/><path d="m628.4 104.15h12.37a26.15 26.15 0 0 0 0-52.31" stroke="#fff" stroke-width="1.500001"/><path d="m434.27 77.91h-26.95v26.94" stroke="#fff" stroke-width="1.500001"/><path d="m445.91 25.68h-38.59v38.58" stroke="#fff" stroke-width="1.500001"/><path d="m214.98 49.19h-47.6" stroke="#fff" stroke-width="1.5"/><path d="m214.98 64.92h-47.6" stroke="#fff" stroke-width="1.5"/><path d="m214.98 80.66h-47.6" stroke="#fff" stroke-width="1.5"/><path d="m50.57 32.59h-19.59v24.74" stroke="#fff" stroke-width="1.500001"/><path d="m25.61 59.56h10.73v10.73h-10.73z" stroke="#fff" stroke-width="1.500001" transform="matrix(.70710678 .70710678 -.70710678 .70710678 54.98 -2.89)"/><circle cx="301.05" cy="74.34" r="6.65" stroke="#fff" stroke-width="1.500001"/><g clip-path="url(#a)" stroke="#202124" stroke-width="1.500001"><circle cx="301.05" cy="74.34" r="6.65"/><circle cx="324.31" cy="34.05" r="6.65"/><path d="m320.98 39.81-16.64 28.84"/></g><path d="m427.03 25.69h18.88" stroke="#202124" stroke-width="1.500001"/><path d="m427.03 77.91h14.57" stroke="#202124" stroke-width="1.500001"/><g clip-path="url(#b)" stroke="#202124" stroke-width="1.500001"><path d="m514.09 49.12-6.76-.04"/><path d="m516.06 44.71h8.94v8.94h-8.94z" transform="matrix(.70710678 .70710678 -.70710678 .70710678 187.24 -353.67)"/></g><path d="m721.42 25.94h-14.8" stroke="#202124" stroke-width="1.500001"/><path d="m775.68 25.94h-14.81" stroke="#202124" stroke-width="1.500001"/><path d="m536.15 163.45a26.15 26.15 0 0 1 26.15 26.15v26.16a26.15 26.15 0 0 1 -26.15 26.15h-19.61" stroke="#fff" stroke-width="1.5"/></g><path d="m358.41 165a24.68 24.68 0 0 1 24.65 24.65v26.16a24.65 24.65 0 1 1 -49.31 0v-26.2a24.68 24.68 0 0 1 24.66-24.61m0-1.5a26.15 26.15 0 0 0 -26.15 26.15v26.16a26.15 26.15 0 1 0 52.31 0v-26.2a26.15 26.15 0 0 0 -26.15-26.15z" fill="#fff"/><path d="m447.96 163.7v78.22" fill="none" stroke="#fff" stroke-miterlimit="10" stroke-width="1.5"/><path d="m278.87 241.92h-38.91v-13.08" fill="none" stroke="#fff" stroke-miterlimit="10" stroke-width="1.5"/><path d="m240 228.84a18.31 18.31 0 0 1 18.31-18.31 23.54 23.54 0 0 0 0-47.07h-18.31" fill="none" stroke="#fff" stroke-miterlimit="10" stroke-width="1.5"/><path d="m536.15 163.45a26.15 26.15 0 1 0 26.15 26.15" fill="none" stroke="#fff" stroke-miterlimit="10" stroke-width="1.5"/></svg>